<svg viewBox="0 0 36 26" fill="none" xmlns="http://www.w3.org/2000/svg" class="sc-aa7988cb-0 sc-7e7196d-4 jFfelP jnliww"><path fill-rule="evenodd" clip-rule="evenodd" d="M15.51 1.991a3.966 3.966 0 0 1 1.469 5.44L8.955 21.225c-1.108 1.904-3.562 2.557-5.48 1.457a3.966 3.966 0 0 1-1.469-5.44L10.03 3.45a4.027 4.027 0 0 1 5.48-1.46Z" fill="#D0E6FB"/><path fill-rule="evenodd" clip-rule="evenodd" d="M32.526 2.456a3.966 3.966 0 0 1 1.468 5.44l-8.526 14.656c-1.107 1.904-3.561 2.557-5.48 1.457a3.966 3.966 0 0 1-1.468-5.44l8.525-14.656c1.108-1.904 3.562-2.557 5.48-1.457Z" fill="#FFAC68"/></svg>